<?xml version="1.0" encoding="utf-8"?>
<!-- Generator: Adobe Illustrator 19.0.0, SVG Export Plug-In . SVG Version: 6.00 Build 0)  -->
<svg version="1.1" id="Layer_1_xA0_Image_1_" xmlns="http://www.w3.org/2000/svg" xmlns:xlink="http://www.w3.org/1999/xlink"
	 x="0px" y="0px" viewBox="0 0 300 228" style="enable-background:new 0 0 300 228;" xml:space="preserve">
<style type="text/css">
	.st0{fill:#FFFFFF;}
</style>
<g>
	<path class="st0" d="M0.2,44.6c0-14.7,0-29.4,0-44.2c61.7,0,123.4,0,185,0c-0.5,0.1-1.1,0.3-1.6,0.4c-6.3,1-12.1,3.2-17.2,7.1
		c-2.1,1.6-4.2,3.3-5.6,5.5c-2.3,3.3-3.4,7.1-4,11.1c-0.8,6,1.8,11.8,7.1,14.9c4.1,2.4,8.5,3.6,13,1c0.2-0.1,0.4-0.1,0.6-0.2
		c1-0.7,2.1-1.2,2.8-2.1c3.1-4,3.1-8.1,0-12.2c-2.3-3.1-6.1-3.1-8.5,0c-1.3,1.8-1.9,3.8-1.8,5.9c0.1,1.8,0.5,3.5,0.8,5.3
		c-7.2-0.5-11.8-7.3-9.6-14.4c2.8-8.9,9.3-13.9,17.9-16.5c5.4-1.6,10.9-1.8,16.4-1.1c3.3,0.4,6.6,1,9.7,2.1
		c5.8,2.2,11.3,5.2,15.9,9.6c3.8,3.6,7.2,7.5,9.5,12.2c4.4,9,6.6,18.6,6.6,28.7c0,6-0.5,11.9-2.3,17.7c-2,6.3-4.8,12.2-8.8,17.4
		c-6.4,8.4-14.7,14.6-23.9,19.6c-0.8,0.4-1.7,0.8-2.3,1.2c0.7-2.2,1.5-4.4,2-6.7c0.8-4.3,0.6-8.7-0.9-12.9
		c-2.7-7.6-9.8-12.4-17.9-12.1c-7.5,0.3-13.5,3.4-16.9,10.3c-3,6-3.2,12.4-0.9,18.7c2.7,7.5,9.1,12.1,17,12c3.1,0,6.3-0.5,9.4-1.2
		c7.2-1.5,13.3-5.5,19.4-9.2c5.2-3.1,9.6-7.4,14.3-11.2c6.2-5.1,12.1-10.4,18.4-15.4c5-4,10.6-7.1,16.8-9c7.4-2.2,14.8-1.8,22.2,0.5
		c8,2.6,13.4,9.9,13.2,18.2c-0.1,5.1-1.6,9.5-6.2,12.5c-5,3.2-10.1,3.5-15.4,1.3c-1.4-0.6-2.1-2-2.5-3.8c0.7,0.5,1.1,0.8,1.6,1.1
		c3,1.9,6.1,2.2,9.2,0.7c5.2-2.6,5.1-8.2,1.9-11.3c-3.2-3.3-8.9-3.7-12.9-1c-6.2,4.2-6.1,14.2,0.3,18.1c1.9,1.2,4,1.8,6.2,1.9
		c2.5,0,5.1,0.3,7.5-0.3c4.4-1,8-3.6,10.9-7.1c2.4-2.9,4-6,3.7-9.9c-0.2-2.2,0-4.5,0-6.7c0-0.5,0-1-0.1-1.4c-1.7-6-5-11-10.3-14.2
		c-7.8-4.8-16.4-5.8-25.3-4.5c-9,1.4-16.8,5.4-23.9,11c-1.2,1-2.4,2.1-3.8,3.3c0.2-0.6,0.3-0.8,0.4-1.1c0.8-2.2,1.7-4.3,2.3-6.5
		c4-13.4,3.7-26.7-0.2-40.1c-2.9-9.9-8.3-18.2-15.8-25.2c-5.4-5-11.6-8.8-18.8-10.7c-2.4-0.6-4.8-1-7.2-1.5c34.3,0,68.6,0,103,0
		c0,75.9,0,151.8,0,227.8c-100,0-200,0-300,0c0-60.2,0-120.5,0-180.7c0.1,0.2,0.3,0.4,0.4,0.7c1.3,2.7,4.3,3.6,7,2.3
		c2.3-1.1,3.2-4.3,2-6.7c-1.2-2.4-4.3-3.4-6.7-2C1.8,42.4,1.1,43.7,0.2,44.6z M170.9,196c2.9-0.4,4.1,0.1,5.7,2
		c0.5,0.6,0.9,1.1,1.3,1.7c4,5.6,3.2,13.6-0.1,17.3c-3.8,4.3-8.7,7-14.8,6.4c-4.3-0.4-8.3-1.5-11.5-4.6c-8.7-8.6-12.4-19-10.6-31.2
		c1.1-7.2,3.5-14.1,5.9-21c2.4-7,4.9-14,6.9-21.2c2.6-9.5,2.4-19.3,2.6-29.1c0.2-10.6,0.2-21.1,0.3-31.7c0-0.5,0-1.1,0-1.7
		c-2.5,0-4.9,0-7.3,0c-0.1,1.3-0.2,2.6-0.3,4.1c-0.9-0.8-1.6-1.6-2.3-2.1c-0.8-0.6-1.7-1.1-2.6-1.5c-6.4-2.9-14.2-1-19,4.4
		c-6.2,7-7,19.1-1.9,26.9c4.7,7.1,13.8,9.5,21.2,5.5c1.3-0.7,2.4-1.7,3.8-2.7c0,2.5,0,4.9,0,7.4c0,8.7-0.9,17.2-3.4,25.6
		c-3.5,12.1-10.8,21.3-21.2,28.1c-6.7,4.4-14.1,7.4-22.1,8.9c-5.7,1.1-11.5,1.9-17.3,1.3c-11.5-1.2-21.3-6.4-29-14.9
		c-6.2-6.8-10.1-14.9-10.9-24.2c-0.7-7.8,1.2-14.8,7-20.4c5-4.9,10.2-5.2,15.3-1.1c1.1,0.9,1.9,2.1,2.7,3.1
		c-0.3,0.3-0.3,0.3-0.3,0.3c-0.5,0-1,0-1.4,0.1c-3.6,0.5-6.7,2-8.4,5.4c-1.6,3.2,0,6.6,3.5,7.3c1.2,0.2,2.5,0.3,3.8,0.3
		c2.7-0.1,4.7-1.4,6.4-3.5c1.9-2.4,1.8-5.1,1.7-7.9c-0.1-1.9-0.7-3.5-1.8-5c-3.4-4.4-7.6-7.2-13.4-6.9c-3.2,0.1-6.1,1.3-8.6,3.2
		c-3.3,2.4-6.4,5-8,8.9c-3.3,8-3.5,16.3-1.2,24.6c4.2,14.7,13.1,25.2,27.4,31.1c11.8,4.9,23.9,5.3,36.2,2.3
		c12.7-3.1,23.8-9.2,32.9-18.6c0.1-0.1,0.3-0.2,0.7-0.4c-0.1,0.4-0.2,0.6-0.2,0.8c-1.6,4.5-2.6,9.1-3,13.8c-0.9,9.8,0.9,19,6.1,27.3
		c2.8,4.5,6.3,8.3,10.9,10.9c3.9,2.1,8.1,2.9,12.5,2.8c9.6-0.1,17.2-6,19.4-15.4c0.7-2.8,1.1-5.8,0.3-8.5c-0.8-2.6-2-5.2-3.5-7.6
		c-2.3-3.9-5.9-5.6-10.5-5c-3.1,0.4-6.1,1.3-7.8,4.2c-3.5,5.8-1.9,12.8,4.4,15.6c2.7,1.2,6.2,0.4,7.9-1.8c2-2.7,2.1-5.7,0.7-8.7
		C175,198.5,173.3,197.1,170.9,196z M66.9,122.3c2.4,0,4.6-0.1,6.8,0c1.1,0,1.4-0.3,1.4-1.4c-0.1-7.1,0-14.2-0.1-21.4
		c0-1.8-0.1-3.5-0.4-5.3c-0.7-4-2.2-7.5-5.6-10c-5.5-3.9-13.5-2.8-18.1,2.5c-0.5,0.6-1,1.2-1.6,2c-2.4-4.3-5.9-6.7-10.7-6.8
		c-4.6-0.1-8.5,1.7-11.5,5.4c-0.1-0.1-0.2-0.2-0.3-0.3c0-1.8,0-3.6,0-5.4c-2.5,0-4.8,0-7.2,0c0,13.5,0,26.9,0,40.4
		c2.3,0,4.6,0,6.9,0c1,0,1.2-0.3,1.2-1.2c0-7.2,0-14.3-0.1-21.5c0-3.5,1.1-6.5,3.8-8.8c3.9-3.2,9.2-1.9,10.9,2.8
		c0.6,1.6,0.9,3.5,0.9,5.3c0.1,7.2,0,14.4,0,21.6c0,0.5,0,1.1,0,1.7c2.8,0,5.4,0,8.2,0c0-0.6,0-1.1,0-1.5c0-7.6,0-15.1,0-22.7
		c0-3,1.2-5.5,3.6-7.4c3.8-2.9,9.2-1.6,10.8,3c0.7,2.1,1,4.4,1.1,6.6c0.1,6.6,0,13.1,0,19.7C66.9,120.6,66.9,121.4,66.9,122.3z
		 M104.6,96.6c-0.1,0.1-0.2,0.1-0.3,0.1c-0.3,0-0.6,0-0.8,0c-4.3,0.2-8.6,0.6-12.7,2.3c-4.3,1.8-7.5,4.6-8.6,9.4
		c-1.4,6,1.5,11.8,6.8,13.7c4.8,1.7,9.4,1.1,13.8-1.6c0.9-0.6,1.7-1.3,2.7-2.1c0.2,1.3,0.3,2.5,0.5,3.7c2.6,0,5.1,0,7.6,0
		c0-0.3,0-0.6,0-0.8c-0.2-3.1-0.5-6.1-0.6-9.2c-0.1-5.1,0-10.2-0.1-15.2c0-3.2-0.7-6.3-2.5-9.1c-2.3-3.6-5.8-5.2-9.9-5.6
		c-5.3-0.5-10.3,0.4-15,3.1c-0.3,0.2-0.8,0.7-0.7,1c0.5,1.8,1.2,3.6,1.9,5.5c0.5-0.3,0.9-0.6,1.3-0.8c2.9-1.6,6.1-2.5,9.4-2.4
		C102.1,88.8,105,91.9,104.6,96.6z M1.2,55.2c0,22.4,0,44.7,0,67c2.8,0,5.4,0,8.1,0c0-22.4,0-44.7,0-67C6.6,55.2,4,55.2,1.2,55.2z"
		/>
	<path d="M197.3,0.5c2.4,0.5,4.9,0.9,7.2,1.5c7.2,1.9,13.4,5.7,18.8,10.7c7.5,7,12.9,15.3,15.8,25.2c3.9,13.3,4.2,26.7,0.2,40.1
		c-0.7,2.2-1.5,4.4-2.3,6.5c-0.1,0.2-0.2,0.5-0.4,1.1c1.5-1.3,2.6-2.3,3.8-3.3c7-5.7,14.9-9.7,23.9-11c8.9-1.4,17.5-0.3,25.3,4.5
		c5.3,3.3,8.6,8.2,10.3,14.2c0.1,0.5,0.1,1,0.1,1.4c0,2.2-0.2,4.5,0,6.7c0.3,3.9-1.3,7.1-3.7,9.9c-2.9,3.5-6.5,6.1-10.9,7.1
		c-2.4,0.6-5,0.3-7.5,0.3c-2.2,0-4.3-0.7-6.2-1.9c-6.4-4-6.5-13.9-0.3-18.1c4-2.7,9.7-2.3,12.9,1c3.1,3.1,3.3,8.7-1.9,11.3
		c-3.2,1.5-6.3,1.2-9.2-0.7c-0.5-0.3-0.9-0.6-1.6-1.1c0.5,1.8,1.1,3.2,2.5,3.8c5.3,2.2,10.4,1.9,15.4-1.3c4.6-3,6.1-7.4,6.2-12.5
		c0.2-8.3-5.2-15.6-13.2-18.2c-7.4-2.4-14.7-2.8-22.2-0.5c-6.2,1.9-11.8,5-16.8,9c-6.3,5-12.2,10.3-18.4,15.4
		c-4.7,3.9-9.2,8.1-14.3,11.2c-6.1,3.7-12.2,7.7-19.4,9.2c-3.1,0.6-6.2,1.2-9.4,1.2c-8,0-14.4-4.5-17-12c-2.2-6.3-2-12.6,0.9-18.7
		c3.4-6.9,9.3-10,16.9-10.3c8.2-0.3,15.2,4.5,17.9,12.1c1.5,4.2,1.8,8.5,0.9,12.9c-0.4,2.3-1.3,4.4-2,6.7c0.7-0.3,1.5-0.7,2.3-1.2
		c9.2-5,17.5-11.2,23.9-19.6c4-5.3,6.8-11.1,8.8-17.4c1.9-5.8,2.3-11.7,2.3-17.7c0-10.1-2.1-19.7-6.6-28.7
		c-2.3-4.7-5.7-8.6-9.5-12.2c-4.6-4.4-10.1-7.4-15.9-9.6c-3.1-1.2-6.4-1.7-9.7-2.1c-5.5-0.7-11-0.5-16.4,1.1
		c-8.6,2.6-15.1,7.6-17.9,16.5c-2.2,7.1,2.4,13.9,9.6,14.4c-0.3-1.7-0.7-3.5-0.8-5.3c-0.1-2.2,0.5-4.2,1.8-5.9
		c2.4-3.1,6.2-3.1,8.5,0c3.1,4,3.1,8.2,0,12.2c-0.7,0.9-1.9,1.4-2.8,2.1c-0.2,0.1-0.4,0.1-0.6,0.2c-4.6,2.6-8.9,1.4-13-1
		c-5.3-3.1-7.9-8.9-7.1-14.9c0.6-4,1.7-7.8,4-11.1c1.5-2.1,3.6-3.9,5.6-5.5c5.1-3.9,10.9-6.1,17.2-7.1c0.5-0.1,1.1-0.3,1.6-0.4
		C189.3,0.5,193.3,0.5,197.3,0.5z M172,102.7c0.1,2.5,0.4,5,1.5,7.4c1.7,3.6,4.4,6.1,8.5,6.5c4.1,0.3,7.3-1.5,9.2-5
		c3.4-6.1,3.4-12.4-0.2-18.3c-3.7-6.1-12.2-6.1-16.3-0.2C172.7,95.9,172.1,99.2,172,102.7z"/>
	<path d="M0.2,44.6c0.9-1,1.6-2.2,2.7-2.9c2.5-1.5,5.6-0.4,6.7,2c1.2,2.5,0.3,5.6-2,6.7c-2.7,1.3-5.7,0.3-7-2.3
		c-0.1-0.2-0.3-0.5-0.4-0.7C0.2,46.6,0.2,45.6,0.2,44.6z"/>
	<path d="M170.9,196c2.4,1.1,4.1,2.6,5.1,4.7c1.4,3,1.3,6.1-0.7,8.7c-1.7,2.2-5.2,3-7.9,1.8c-6.2-2.8-7.9-9.8-4.4-15.6
		c1.7-2.8,4.6-3.8,7.8-4.2c4.6-0.6,8.1,1.1,10.5,5c1.4,2.4,2.7,5,3.5,7.6c0.8,2.8,0.4,5.7-0.3,8.5c-2.2,9.4-9.8,15.3-19.4,15.4
		c-4.4,0-8.6-0.7-12.5-2.8c-4.7-2.5-8.2-6.4-10.9-10.9c-5.2-8.4-7-17.6-6.1-27.3c0.4-4.7,1.4-9.3,3-13.8c0.1-0.2,0.1-0.4,0.2-0.8
		c-0.4,0.2-0.6,0.3-0.7,0.4c-9.2,9.4-20.2,15.5-32.9,18.6c-12.3,3-24.4,2.5-36.2-2.3c-14.3-5.9-23.2-16.4-27.4-31.1
		c-2.3-8.3-2.2-16.5,1.2-24.6c1.6-3.9,4.7-6.5,8-8.9c2.6-1.9,5.4-3.1,8.6-3.2c5.8-0.2,10,2.5,13.4,6.9c1.1,1.5,1.7,3.1,1.8,5
		c0.1,2.8,0.3,5.5-1.7,7.9c-1.7,2.1-3.7,3.4-6.4,3.5c-1.3,0-2.6-0.1-3.8-0.3c-3.5-0.7-5.1-4.1-3.5-7.3c1.7-3.4,4.8-4.9,8.4-5.4
		c0.5-0.1,1,0,1.4-0.1c0,0,0-0.1,0.3-0.3c-0.9-1-1.7-2.2-2.7-3.1c-5.1-4.1-10.3-3.8-15.3,1.1c-5.7,5.6-7.6,12.6-7,20.4
		c0.8,9.3,4.7,17.4,10.9,24.2c7.7,8.4,17.5,13.6,29,14.9c5.8,0.6,11.5-0.2,17.3-1.3c8-1.5,15.4-4.5,22.1-8.9
		c10.4-6.7,17.7-16,21.2-28.1c2.4-8.4,3.3-16.9,3.4-25.6c0-2.4,0-4.8,0-7.4c-1.3,1-2.5,2-3.8,2.7c-7.4,4-16.5,1.6-21.2-5.5
		c-5.1-7.8-4.2-19.9,1.9-26.9c4.8-5.4,12.6-7.3,19-4.4c0.9,0.4,1.8,0.9,2.6,1.5c0.8,0.6,1.5,1.3,2.3,2.1c0.1-1.4,0.2-2.7,0.3-4.1
		c2.5,0,4.8,0,7.3,0c0,0.6,0,1.1,0,1.7c-0.1,10.6-0.1,21.1-0.3,31.7c-0.2,9.8,0,19.6-2.6,29.1c-2,7.2-4.5,14.2-6.9,21.2
		c-2.3,6.9-4.8,13.7-5.9,21c-1.8,12.2,1.8,22.6,10.6,31.2c3.1,3.1,7.2,4.2,11.5,4.6c6.1,0.6,10.9-2.1,14.8-6.4
		c3.3-3.7,4.1-11.7,0.1-17.3c-0.4-0.6-0.8-1.2-1.3-1.7C175.1,196,173.8,195.6,170.9,196z M148.4,101.9c-0.1,0-0.2,0-0.3,0
		c0-1.4,0.1-2.7,0-4.1c-0.3-3.9-2.2-6.9-5.9-8.3c-3.7-1.4-7.3-0.7-10.2,2.2c-4.5,4.5-5.1,14.6-1.2,19.9c2.4,3.2,5.6,4.3,9.4,3.8
		c3.6-0.5,6.2-2.7,7.3-6.1C148.1,106.9,148.1,104.4,148.4,101.9z"/>
	<path d="M66.9,122.3c0-0.9,0-1.7,0-2.5c0-6.6,0.1-13.1,0-19.7c0-2.2-0.3-4.5-1.1-6.6c-1.6-4.5-6.9-5.9-10.8-3
		c-2.4,1.9-3.6,4.3-3.6,7.4c0,7.6,0,15.1,0,22.7c0,0.5,0,1,0,1.5c-2.7,0-5.4,0-8.2,0c0-0.6,0-1.1,0-1.7c0-7.2,0.1-14.4,0-21.6
		c0-1.8-0.3-3.6-0.9-5.3c-1.7-4.7-7-6-10.9-2.8c-2.8,2.3-3.8,5.3-3.8,8.8c0.1,7.2,0,14.3,0.1,21.5c0,0.9-0.3,1.2-1.2,1.2
		c-2.3-0.1-4.5,0-6.9,0c0-13.5,0-26.9,0-40.4c2.4,0,4.7,0,7.2,0c0,1.8,0,3.6,0,5.4c0.1,0.1,0.2,0.2,0.3,0.3c3-3.7,6.8-5.5,11.5-5.4
		c4.8,0.1,8.3,2.4,10.7,6.8c0.6-0.7,1.1-1.3,1.6-2c4.7-5.3,12.6-6.4,18.1-2.5c3.4,2.4,5,6,5.6,10c0.3,1.7,0.4,3.5,0.4,5.3
		c0,7.1,0,14.2,0.1,21.4c0,1.1-0.3,1.4-1.4,1.4C71.4,122.3,69.2,122.3,66.9,122.3z"/>
	<path d="M104.6,96.6c0.4-4.7-2.4-7.9-7.3-8c-3.3-0.1-6.5,0.7-9.4,2.4c-0.4,0.2-0.8,0.5-1.3,0.8c-0.7-1.9-1.3-3.6-1.9-5.5
		c-0.1-0.2,0.4-0.8,0.7-1c4.7-2.7,9.7-3.6,15-3.1c4.1,0.4,7.6,2,9.9,5.6c1.8,2.8,2.5,5.9,2.5,9.1c0.1,5.1,0,10.2,0.1,15.2
		c0.1,3.1,0.4,6.1,0.6,9.2c0,0.2,0,0.5,0,0.8c-2.5,0-5,0-7.6,0c-0.2-1.2-0.3-2.4-0.5-3.7c-1,0.8-1.8,1.5-2.7,2.1
		c-4.3,2.7-8.9,3.3-13.8,1.6c-5.3-1.9-8.2-7.8-6.8-13.7c1.1-4.8,4.3-7.6,8.6-9.4c4-1.7,8.3-2.2,12.7-2.3c0.3,0,0.6,0,0.8,0
		C104.3,96.7,104.4,96.7,104.6,96.6z M104.9,103c-1.3,0-2.4-0.1-3.5,0c-3.1,0.3-6.2,0.7-8.8,2.6c-2.6,1.9-3.3,6.3-1.4,8.8
		c0.6,0.8,1.6,1.5,2.5,1.8c3.9,1.3,8.3-0.7,10.2-4.4C105.4,109.1,104.5,106.1,104.9,103z"/>
	<path d="M1.2,55.2c2.7,0,5.4,0,8.1,0c0,22.4,0,44.6,0,67c-2.7,0-5.4,0-8.1,0C1.2,99.9,1.2,77.6,1.2,55.2z"/>
	<path class="st0" d="M172,102.7c0.1-3.5,0.7-6.9,2.7-9.7c4.1-5.9,12.6-5.9,16.3,0.2c3.7,5.9,3.7,12.2,0.2,18.3
		c-2,3.5-5.1,5.4-9.2,5c-4.2-0.3-6.8-2.9-8.5-6.5C172.4,107.7,172.1,105.2,172,102.7z"/>
	<path class="st0" d="M148.4,101.9c-0.3,2.4-0.3,5-1,7.3c-1,3.5-3.7,5.6-7.3,6.1c-3.8,0.6-7-0.6-9.4-3.8c-3.9-5.3-3.3-15.4,1.2-19.9
		c2.9-2.9,6.4-3.6,10.2-2.2c3.7,1.4,5.6,4.3,5.9,8.3c0.1,1.4,0,2.7,0,4.1C148.2,101.9,148.3,101.9,148.4,101.9z"/>
	<path class="st0" d="M104.9,103c-0.3,3.1,0.6,6.1-0.9,8.9c-1.9,3.7-6.3,5.7-10.2,4.4c-1-0.3-1.9-1-2.5-1.8c-2-2.6-1.2-6.9,1.4-8.8
		c2.6-1.9,5.7-2.3,8.8-2.6C102.5,102.9,103.6,103,104.9,103z"/>
</g>
</svg>
